#!OML:ASF H:\Punching\Project 1\Capture day 1\Session 1\female.ASF
:FULLY-SPECIFIED
:DEGREES
1931
root 1.32928 15.4986 2.67014 -9.54418 -7.4273 -1.93202
lowerback 5.72834 -1.92051 -4.90031
upperback -2.80146 -2.72823 4.66788
thorax -5.70624 -1.06792 7.99656
lowerneck -10.8175 5.40369 14.2681
upperneck 39.1051 7.03086 -7.31797
head 16.8348 4.09914 -4.60744
rclavicle 1.39149e-014 -4.05521e-014
rhumerus -1.33371 18.2102 -64.9554
rradius 130.419
rwrist -9.24243
rhand -37.8637 12.7524
rfingers 7.12502
rthumb -10.9078 -16.9443
lclavicle 1.39149e-014 -4.05521e-014
lhumerus 2.0998 -23.4249 64.2773
lradius 136.124
lwrist -1.25823
lhand -30.7041 1.51833
lfingers 7.12502
lthumb -3.99739 31.4606
rfemur -88.5168 -21.5318 21.9419
rtibia 131.732
rfoot 0.550798 3.93859
rtoes -8.41182
lfemur -4.44285 -5.99713 -25.1163
ltibia 31.2589
lfoot -12.0335 9.63138
ltoes 11.3025
1932
root 1.31969 15.5046 2.73817 -10.6388 -6.79501 -2.27288
lowerback 6.42311 -2.11411 -5.05658
upperback -2.4231 -3.01324 4.94738
thorax -5.63203 -1.21272 8.443
lowerneck -10.6803 5.30167 14.1009
upperneck 39.2912 7.01492 -7.49016
head 16.895 4.05434 -4.67283
rclavicle -2.80286e-014 -1.19271e-014
rhumerus -1.22266 17.9064 -64.5253
rradius 130.496
rwrist -9.47664
rhand -37.7959 12.5966
rfingers 7.12502
rthumb -10.8424 -17.1035
lclavicle -2.80286e-014 -1.19271e-014
lhumerus 2.18601 -23.6726 65.0947
lradius 136.02
lwrist -1.34126
lhand -30.7354 1.38907
lfingers 7.12502
lthumb -4.02763 31.3307
rfemur -91.9299 -21.368 22.9151
rtibia 131.66
rfoot 1.49449 3.41014
rtoes -8.07011
lfemur -2.59247 -6.4248 -25.1045
ltibia 30.608
lfoot -12.0445 9.71567
ltoes 11.3138
1933
root 1.30995 15.5106 2.80864 -11.6908 -6.17131 -2.69209
lowerback 7.04742 -2.29252 -5.12807
upperback -2.05962 -3.26854 5.2423
thorax -5.53652 -1.34767 8.8555
lowerneck -10.5552 5.18294 13.9179
upperneck 39.4889 6.97553 -7.65957
head 16.96 3.99809 -4.7392
rclavicle -1.2921e-014 2.38542e-015
rhumerus -1.12259 17.5159 -64.0877
rradius 130.689
rwrist -9.96662
rhand -37.4418 12.1565
rfingers 7.12502
rthumb -10.5009 -17.5612
lclavicle -1.2921e-014 2.38542e-015
lhumerus 2.2624 -23.9501 65.9856
lradius 135.906
lwrist -1.44587
lhand -30.7983 1.22415
lfingers 7.12502
lthumb -4.08837 31.1647
rfemur -95.167 -21.0618 23.7744
rtibia 131.221
rfoot 2.47742 2.75865
rtoes -7.74415
lfemur -0.767171 -6.87743 -25.0227
ltibia 29.9519
lfoot -12.1025 9.79585
ltoes 11.3328
1934
root 1.30067 15.517 2.88098 -12.6806 -5.56458 -3.18069
lowerback 7.58657 -2.45929 -5.112
upperback -1.72079 -3.49686 5.55057
thorax -5.42327 -1.47343 9.22843
lowerneck -10.4344 5.04915 13.723
upperneck 39.696 6.91672 -7.82967
head 17.0278 3.93222 -4.80808
rclavicle 4.6118e-014 -3.65764e-014
rhumerus -1.03788 17.0559 -63.6474
rradius 130.974
rwrist -10.6448
rhand -36.8584 11.4671
rfingers 7.12502
rthumb -9.93803 -18.2783
lclavicle 4.6118e-014 -3.65764e-014
lhumerus 2.31422 -24.2547 66.9451
lradius 135.792
lwrist -1.56979
lhand -30.876 1.00831
lfingers 7.12502
lthumb -4.16339 30.9474
rfemur -98.2254 -20.6614 24.4969
rtibia 130.414
rfoot 3.47743 2.02498
rtoes -7.40275
lfemur 1.01207 -7.34476 -24.8767
ltibia 29.2781
lfoot -12.1872 9.87044
ltoes 11.3904
1935
root 1.29246 15.5238 2.95463 -13.5988 -4.97703 -3.71822
lowerback 8.01949 -2.61851 -5.01405
upperback -1.40191 -3.70339 5.86225
thorax -5.27626 -1.59304 9.55127
lowerneck -10.3228 4.90433 13.5231
upperneck 39.8991 6.84134 -8.00067
head 17.0932 3.85842 -4.87954
rclavicle 1.59028e-015 -6.36111e-015
rhumerus -0.961061 16.553 -63.2159
rradius 131.285
rwrist -11.3415
rhand -36.2019 10.6655
rfingers 7.12502
rthumb -9.30459 -19.1091
lclavicle 1.59028e-015 -6.36111e-015
lhumerus 2.34454 -24.5781 67.9546
lradius 135.692
lwrist -1.68873
lhand -30.9345 0.842067
lfingers 7.12502
lthumb -4.21986 30.78
rfemur -101.101 -20.2227 25.0593
rtibia 129.24
rfoot 4.47245 1.27787
rtoes -7.13291
lfemur 2.73222 -7.81761 -24.6871
ltibia 28.5762
lfoot -12.2898 9.94849
ltoes 11.5064
1936
root 1.28594 15.5313 3.02867 -14.4442 -4.40379 -4.29308
lowerback 8.36657 -2.76922 -4.84582
upperback -1.1118 -3.88811 6.17928
thorax -5.11726 -1.70423 9.83369
lowerneck -10.2164 4.74618 13.3128
upperneck 40.1037 6.74845 -8.17284
head 17.1576 3.77568 -4.95315
rclavicle -2.38542e-014 1.59028e-015
rhumerus -0.901036 16.0397 -62.7805
rradius 131.566
rwrist -11.9436
rhand -35.6096 9.98854
rfingers 7.12502
rthumb -8.73305 -19.8108
lclavicle -2.38542e-014 1.59028e-015
lhumerus 2.34231 -24.9201 69.0228
lradius 135.607
lwrist -1.8086
lhand -30.977 0.708045
lfingers 7.12502
lthumb -4.26094 30.6452
rfemur -103.772 -19.8042 25.4522
rtibia 127.694
rfoot 5.46107 0.556688
rtoes -6.91305
lfemur 4.38592 -8.29098 -24.4679
ltibia 27.8385
lfoot -12.3737 10.0372
ltoes 11.6514
1937
root 1.28145 15.5398 3.10209 -15.229 -3.84046 -4.89071
lowerback 8.64988 -2.91155 -4.61483
upperback -0.854206 -4.05266 6.49443
thorax -4.96359 -1.80616 10.0734
lowerneck -10.1013 4.57414 13.0953
upperneck 40.3032 6.63725 -8.34484
head 17.2138 3.68443 -5.02864
rclavicle 3.97569e-014 6.36111e-015
rhumerus -0.876976 15.5609 -62.3558
rradius 131.767
rwrist -12.3057
rhand -35.2319 9.5892
rfingers 7.12502
rthumb -8.36857 -20.225
lclavicle 3.97569e-014 6.36111e-015
lhumerus 2.2999 -25.2889 70.141
lradius 135.546
lwrist -1.93173
lhand -31.0044 0.656898
lfingers 7.12502
lthumb -4.28741 30.5935
rfemur -106.201 -19.4523 25.67
rtibia 125.771
rfoot 6.42689 -0.095802
rtoes -6.78969
lfemur 5.9784 -8.75873 -24.2341
ltibia 27.0585
lfoot -12.418 10.1358
ltoes 11.8415
1938
root 1.27933 15.5496 3.17429 -15.9776 -3.28839 -5.50884
lowerback 8.90158 -3.04492 -4.32446
upperback -0.627622 -4.19696 6.80889
thorax -4.83248 -1.8974 10.2759
lowerneck -9.96506 4.38643 12.8655
upperneck 40.4955 6.5069 -8.51459
head 17.2565 3.5839 -5.10394
rclavicle 8.34896e-015 -1.59028e-015
rhumerus -0.896913 15.1296 -61.938
rradius 131.896
rwrist -12.4413
rhand -35.0812 9.50661
rfingers 7.12502
rthumb -8.22314 -20.3134
lclavicle 8.34896e-015 -1.59028e-015
lhumerus 2.20377 -25.6844 71.3095
lradius 135.502
lwrist -2.07821
lhand -31.0283 0.648606
lfingers 7.12502
lthumb -4.31043 30.5847
rfemur -108.326 -19.197 25.72
rtibia 123.466
rfoot 7.34373 -0.677456
rtoes -6.78188
lfemur 7.52977 -9.21852 -23.9908
ltibia 26.2364
lfoot -12.4087 10.2578
ltoes 12.0125
1939
root 1.27928 15.5609 3.2442 -16.7059 -2.74532 -6.141
lowerback 9.1524 -3.16656 -3.98715
upperback -0.430261 -4.31865 7.12045
thorax -4.73976 -1.97539 10.4484
lowerneck -9.81692 4.18571 12.6301
upperneck 40.6829 6.35806 -8.68143
head 17.2901 3.47544 -5.17974
rclavicle 2.0276e-014 -3.49861e-014
rhumerus -0.965654 14.759 -61.5418
rradius 131.956
rwrist -12.3447
rhand -35.156 9.71628
rfingers 7.12502
rthumb -8.29529 -20.1008
lclavicle 2.0276e-014 -3.49861e-014
lhumerus 2.05105 -26.1075 72.5245
lradius 135.465
lwrist -2.2692
lhand -31.0785 0.627708
lfingers 7.12502
lthumb -4.35896 30.5628
rfemur -110.106 -19.049 25.6111
rtibia 120.779
rfoot 8.20688 -1.25882
rtoes -6.75793
lfemur 9.05234 -9.66189 -23.7399
ltibia 25.3747
lfoot -12.3401 10.3881
ltoes 12.1409
1940
root 1.2806 15.5736 3.31128 -17.4198 -2.21171 -6.78538
lowerback 9.4044 -3.27398 -3.61605
upperback -0.252133 -4.4156 7.42712
thorax -4.67593 -2.03938 10.5957
lowerneck -9.67129 3.97231 12.3962
upperneck 40.8623 6.18476 -8.83988
head 17.3155 3.35787 -5.25528
rclavicle -6.16232e-014 6.36111e-015
rhumerus -1.0698 14.4 -61.1754
rradius 132.026
rwrist -12.2116
rhand -35.2568 9.9624
rfingers 7.12502
rthumb -8.39257 -19.8509
lclavicle -6.16232e-014 6.36111e-015
lhumerus 1.85774 -26.5633 73.7681
lradius 135.424
lwrist -2.51481
lhand -31.1644 0.551727
lfingers 7.12502
lthumb -4.44193 30.4851
rfemur -111.511 -19.0033 25.3534
rtibia 117.713
rfoot 9.01552 -1.85215
rtoes -6.91335
lfemur 10.5484 -10.084 -23.4744
ltibia 24.4777
lfoot -12.2111 10.5115
ltoes 12.2071
1941
root 1.28216 15.5879 3.37474 -18.1097 -1.69247 -7.43804
lowerback 9.64156 -3.36488 -3.23746
upperback -0.0842893 -4.48754 7.73335
thorax -4.62035 -2.08986 10.736
lowerneck -9.54946 3.75065 12.1662
upperneck 41.0378 5.98852 -8.98469
head 17.3409 3.23251 -5.32835
rclavicle -1.98785e-015 8.74653e-014
rhumerus -1.19444 14.016 -60.8314
rradius 132.162
rwrist -12.191
rhand -35.2716 10.1334
rfingers 7.12502
rthumb -8.40687 -19.6793
lclavicle -1.98785e-015 8.74653e-014
lhumerus 1.63667 -27.046 75.031
lradius 135.375
lwrist -2.81007
lhand -31.2657 0.449687
lfingers 7.12502
lthumb -4.53966 30.381
rfemur -112.537 -19.0355 24.9562
rtibia 114.266
rfoot 9.79529 -2.5267
rtoes -7.24684
lfemur 12.0057 -10.4823 -23.1844
ltibia 23.5473
lfoot -12.0329 10.6114
ltoes 12.2188
1942
root 1.2833 15.6035 3.43388 -18.7697 -1.1938 -8.08971
lowerback 9.85833 -3.43552 -2.87142
upperback 0.0787674 -4.53226 8.03731
thorax -4.56309 -2.12592 10.8778
lowerneck -9.46551 3.52329 11.945
upperneck 41.213 5.76729 -9.10809
head 17.3717 3.10007 -5.39675
rclavicle 0 1.43125e-014
rhumerus -1.33125 13.6008 -60.5203
rradius 132.355
rwrist -12.2684
rhand -35.2162 10.2371
rfingers 7.12502
rthumb -8.35341 -19.5777
lclavicle 0 1.43125e-014
lhumerus 1.39838 -27.5486 76.2976
lradius 135.317
lwrist -3.13432
lhand -31.3699 0.292592
lfingers 7.12502
lthumb -4.64028 30.2218
rfemur -113.177 -19.1252 24.4089
rtibia 110.431
rfoot 10.5881 -3.31247
rtoes -7.67248
lfemur 13.4147 -10.8602 -22.8688
ltibia 22.5893
lfoot -11.8143 10.6688
ltoes 12.2401
1943
root 1.28357 15.6199 3.48816 -19.3972 -0.717335 -8.71884
lowerback 10.0439 -3.48691 -2.54416
upperback 0.248202 -4.55575 8.33211
thorax -4.48343 -2.15145 11.0275
lowerneck -9.43119 3.29743 11.7468
upperneck 41.3817 5.52862 -9.21477
head 17.4099 2.96491 -5.46378
rclavicle 1.98785e-015 3.33958e-014
rhumerus -1.47706 13.1661 -60.2545
rradius 132.576
rwrist -12.3536
rhand -35.1549 10.2815
rfingers 7.12502
rthumb -8.29431 -19.5356
lclavicle 1.98785e-015 3.33958e-014
lhumerus 1.14869 -28.065 77.5441
lradius 135.252
lwrist -3.47251
lhand -31.4851 0.160494
lfingers 7.12502
lthumb -4.7516 30.0872
rfemur -113.426 -19.2573 23.6831
rtibia 106.197
rfoot 11.4448 -4.15952
rtoes -8.30681
lfemur 14.7677 -11.2172 -22.5444
ltibia 21.6146
lfoot -11.5737 10.6745
ltoes 12.2911
1944
root 1.28351 15.6362 3.5372 -19.9924 -0.256332 -9.31544
lowerback 10.2134 -3.52069 -2.26199
upperback 0.415663 -4.56095 8.61442
thorax -4.39786 -2.16682 11.1872
lowerneck -9.4299 3.07018 11.5608
upperneck 41.5486 5.26852 -9.29325
head 17.4521 2.82556 -5.52294
rclavicle -8.5875e-014 3.18055e-014
rhumerus -1.65074 12.7221 -60.0346
rradius 132.804
rwrist -12.4082
rhand -35.1196 10.3708
rfingers 7.12502
rthumb -8.26015 -19.4478
lclavicle -8.5875e-014 3.18055e-014
lhumerus 0.869068 -28.5922 78.7745
lradius 135.195
lwrist -3.78206
lhand -31.5881 0.0159567
lfingers 7.12502
lthumb -4.85099 29.9404
rfemur -113.281 -19.4386 22.7513
rtibia 101.552
rfoot 12.3977 -5.01706
rtoes -9.02987
lfemur 16.051 -11.5637 -22.2277
ltibia 20.6437
lfoot -11.3095 10.6338
ltoes 12.3285
1945
root 1.28351 15.6507 3.58116 -20.5572 0.191758 -9.87127
lowerback 10.3706 -3.54255 -2.02348
upperback 0.581419 -4.55582 8.87911
thorax -4.30709 -2.17618 11.3515
lowerneck -9.4497 2.84539 11.3916
upperneck 41.7122 4.99339 -9.3448
head 17.496 2.68545 -5.57449
rclavicle 4.53229e-014 -3.97569e-014
rhumerus -1.85206 12.28 -59.8746
rradius 133.028
rwrist -12.4117
rhand -35.1133 10.4668
rfingers 7.12502
rthumb -8.25414 -19.352
lclavicle 4.53229e-014 -3.97569e-014
lhumerus 0.548656 -29.1204 79.9777
lradius 135.15
lwrist -4.05536
lhand -31.6779 -0.126037
lfingers 7.12502
lthumb -4.93771 29.7964
rfemur -112.727 -19.668 21.5851
rtibia 96.4787
rfoot 13.4409 -5.81022
rtoes -9.75795
lfemur 17.2619 -11.9053 -21.9328
ltibia 19.6886
lfoot -11.0329 10.549
ltoes 12.3692
